<mxfile host="app.diagrams.net" agent="Mozilla/5.0 (Windows NT 10.0; Win64; x64) AppleWebKit/537.36 (KHTML, like Gecko) Chrome/132.0.0.0 Safari/537.36" version="26.0.11">
  <diagram id="AEsPWfPZr3CSTxQ88v76" name="Pagina-1">
    <mxGraphModel dx="1434" dy="738" grid="1" gridSize="10" guides="1" tooltips="1" connect="1" arrows="1" fold="1" page="1" pageScale="1" pageWidth="850" pageHeight="1100" math="0" shadow="0">
      <root>
        <mxCell id="0" />
        <mxCell id="1" parent="0" />
        <mxCell id="rRJ4oKLp7fPjQT5OwFoZ-3" value="" style="ellipse;html=1;shape=endState;fillColor=#000000;strokeColor=#ff0000;" parent="1" vertex="1">
          <mxGeometry x="65" y="450" width="30" height="30" as="geometry" />
        </mxCell>
        <mxCell id="rRJ4oKLp7fPjQT5OwFoZ-4" value="" style="ellipse;html=1;shape=startState;fillColor=#000000;strokeColor=#ff0000;" parent="1" vertex="1">
          <mxGeometry x="280" y="50" width="30" height="30" as="geometry" />
        </mxCell>
        <mxCell id="rRJ4oKLp7fPjQT5OwFoZ-5" value="" style="edgeStyle=orthogonalEdgeStyle;html=1;verticalAlign=bottom;endArrow=open;endSize=8;strokeColor=#ff0000;rounded=0;" parent="1" source="rRJ4oKLp7fPjQT5OwFoZ-4" target="rRJ4oKLp7fPjQT5OwFoZ-6" edge="1">
          <mxGeometry relative="1" as="geometry">
            <mxPoint x="295" y="140" as="targetPoint" />
          </mxGeometry>
        </mxCell>
        <mxCell id="rRJ4oKLp7fPjQT5OwFoZ-8" style="edgeStyle=orthogonalEdgeStyle;rounded=0;orthogonalLoop=1;jettySize=auto;html=1;" parent="1" source="rRJ4oKLp7fPjQT5OwFoZ-6" target="rRJ4oKLp7fPjQT5OwFoZ-7" edge="1">
          <mxGeometry relative="1" as="geometry" />
        </mxCell>
        <mxCell id="rRJ4oKLp7fPjQT5OwFoZ-6" value="Richiesta Armadietto" style="rounded=1;arcSize=10;whiteSpace=wrap;html=1;align=center;" parent="1" vertex="1">
          <mxGeometry x="245" y="110" width="100" height="40" as="geometry" />
        </mxCell>
        <mxCell id="rRJ4oKLp7fPjQT5OwFoZ-10" style="edgeStyle=orthogonalEdgeStyle;rounded=0;orthogonalLoop=1;jettySize=auto;html=1;" parent="1" source="rRJ4oKLp7fPjQT5OwFoZ-7" target="rRJ4oKLp7fPjQT5OwFoZ-9" edge="1">
          <mxGeometry relative="1" as="geometry" />
        </mxCell>
        <mxCell id="rRJ4oKLp7fPjQT5OwFoZ-7" value="L&#39;armadietto è disponibile?" style="rounded=1;arcSize=10;whiteSpace=wrap;html=1;align=center;" parent="1" vertex="1">
          <mxGeometry x="245" y="180" width="100" height="40" as="geometry" />
        </mxCell>
        <mxCell id="rRJ4oKLp7fPjQT5OwFoZ-12" style="edgeStyle=orthogonalEdgeStyle;rounded=0;orthogonalLoop=1;jettySize=auto;html=1;" parent="1" source="rRJ4oKLp7fPjQT5OwFoZ-9" target="rRJ4oKLp7fPjQT5OwFoZ-11" edge="1">
          <mxGeometry relative="1" as="geometry" />
        </mxCell>
        <mxCell id="rRJ4oKLp7fPjQT5OwFoZ-13" value="&lt;div&gt;SI&lt;/div&gt;" style="edgeLabel;html=1;align=center;verticalAlign=middle;resizable=0;points=[];" parent="rRJ4oKLp7fPjQT5OwFoZ-12" connectable="0" vertex="1">
          <mxGeometry x="-0.0514" y="-2" relative="1" as="geometry">
            <mxPoint as="offset" />
          </mxGeometry>
        </mxCell>
        <mxCell id="rRJ4oKLp7fPjQT5OwFoZ-9" value="" style="strokeWidth=2;html=1;shape=mxgraph.flowchart.decision;whiteSpace=wrap;" parent="1" vertex="1">
          <mxGeometry x="267.5" y="250" width="55" height="50" as="geometry" />
        </mxCell>
        <mxCell id="rRJ4oKLp7fPjQT5OwFoZ-25" style="edgeStyle=orthogonalEdgeStyle;rounded=0;orthogonalLoop=1;jettySize=auto;html=1;" parent="1" source="rRJ4oKLp7fPjQT5OwFoZ-11" target="rRJ4oKLp7fPjQT5OwFoZ-23" edge="1">
          <mxGeometry relative="1" as="geometry" />
        </mxCell>
        <mxCell id="rRJ4oKLp7fPjQT5OwFoZ-11" value="Pagamento Cauzione" style="rounded=1;arcSize=10;whiteSpace=wrap;html=1;align=center;" parent="1" vertex="1">
          <mxGeometry x="410" y="255" width="100" height="40" as="geometry" />
        </mxCell>
        <mxCell id="rRJ4oKLp7fPjQT5OwFoZ-17" value="" style="edgeStyle=orthogonalEdgeStyle;rounded=0;orthogonalLoop=1;jettySize=auto;html=1;exitX=0;exitY=0.5;exitDx=0;exitDy=0;exitPerimeter=0;entryX=0.5;entryY=0;entryDx=0;entryDy=0;" parent="1" source="rRJ4oKLp7fPjQT5OwFoZ-9" target="rRJ4oKLp7fPjQT5OwFoZ-16" edge="1">
          <mxGeometry relative="1" as="geometry">
            <mxPoint x="268" y="275" as="sourcePoint" />
            <mxPoint x="85" y="440" as="targetPoint" />
          </mxGeometry>
        </mxCell>
        <mxCell id="rRJ4oKLp7fPjQT5OwFoZ-19" value="NO" style="edgeLabel;html=1;align=center;verticalAlign=middle;resizable=0;points=[];" parent="rRJ4oKLp7fPjQT5OwFoZ-17" connectable="0" vertex="1">
          <mxGeometry x="-0.2434" y="5" relative="1" as="geometry">
            <mxPoint as="offset" />
          </mxGeometry>
        </mxCell>
        <mxCell id="rRJ4oKLp7fPjQT5OwFoZ-18" style="edgeStyle=orthogonalEdgeStyle;rounded=0;orthogonalLoop=1;jettySize=auto;html=1;entryX=0.5;entryY=0;entryDx=0;entryDy=0;" parent="1" source="rRJ4oKLp7fPjQT5OwFoZ-16" target="rRJ4oKLp7fPjQT5OwFoZ-3" edge="1">
          <mxGeometry relative="1" as="geometry" />
        </mxCell>
        <mxCell id="rRJ4oKLp7fPjQT5OwFoZ-16" value="NON e disponibile" style="rounded=1;arcSize=10;whiteSpace=wrap;html=1;align=center;" parent="1" vertex="1">
          <mxGeometry x="30" y="340" width="100" height="40" as="geometry" />
        </mxCell>
        <mxCell id="rRJ4oKLp7fPjQT5OwFoZ-22" value="" style="strokeWidth=2;html=1;shape=mxgraph.flowchart.decision;whiteSpace=wrap;" parent="1" vertex="1">
          <mxGeometry x="572.5" y="360" width="55" height="50" as="geometry" />
        </mxCell>
        <mxCell id="rRJ4oKLp7fPjQT5OwFoZ-23" value="Il pagamento è stato effettuato?" style="rounded=1;arcSize=10;whiteSpace=wrap;html=1;align=center;" parent="1" vertex="1">
          <mxGeometry x="550" y="255" width="100" height="40" as="geometry" />
        </mxCell>
        <mxCell id="rRJ4oKLp7fPjQT5OwFoZ-24" style="edgeStyle=orthogonalEdgeStyle;rounded=0;orthogonalLoop=1;jettySize=auto;html=1;entryX=0.5;entryY=0;entryDx=0;entryDy=0;entryPerimeter=0;" parent="1" source="rRJ4oKLp7fPjQT5OwFoZ-23" target="rRJ4oKLp7fPjQT5OwFoZ-22" edge="1">
          <mxGeometry relative="1" as="geometry" />
        </mxCell>
        <mxCell id="IHY_vocE8mnEU9mLplWN-1" value="" style="ellipse;html=1;shape=endState;fillColor=#B2C9AB;strokeColor=#788AA3;labelBackgroundColor=none;fontColor=#46495D;" vertex="1" parent="1">
          <mxGeometry x="105" y="1550" width="30" height="30" as="geometry" />
        </mxCell>
        <mxCell id="IHY_vocE8mnEU9mLplWN-2" style="edgeStyle=orthogonalEdgeStyle;rounded=0;orthogonalLoop=1;jettySize=auto;html=1;entryX=0.5;entryY=0;entryDx=0;entryDy=0;labelBackgroundColor=none;strokeColor=#788AA3;fontColor=default;" edge="1" parent="1" source="IHY_vocE8mnEU9mLplWN-3" target="IHY_vocE8mnEU9mLplWN-33">
          <mxGeometry relative="1" as="geometry" />
        </mxCell>
        <mxCell id="IHY_vocE8mnEU9mLplWN-3" value="" style="ellipse;html=1;shape=startState;fillColor=#B2C9AB;strokeColor=#788AA3;labelBackgroundColor=none;fontColor=#46495D;" vertex="1" parent="1">
          <mxGeometry x="180" y="520" width="30" height="30" as="geometry" />
        </mxCell>
        <mxCell id="IHY_vocE8mnEU9mLplWN-4" style="edgeStyle=orthogonalEdgeStyle;rounded=0;orthogonalLoop=1;jettySize=auto;html=1;labelBackgroundColor=none;strokeColor=#788AA3;fontColor=default;" edge="1" parent="1" source="IHY_vocE8mnEU9mLplWN-5" target="IHY_vocE8mnEU9mLplWN-7">
          <mxGeometry relative="1" as="geometry" />
        </mxCell>
        <mxCell id="IHY_vocE8mnEU9mLplWN-5" value="Richiesta Armadietto" style="rounded=1;arcSize=10;whiteSpace=wrap;html=1;align=center;labelBackgroundColor=none;fillColor=#B2C9AB;strokeColor=#788AA3;fontColor=#46495D;" vertex="1" parent="1">
          <mxGeometry x="92.5" y="840" width="100" height="40" as="geometry" />
        </mxCell>
        <mxCell id="IHY_vocE8mnEU9mLplWN-6" style="edgeStyle=orthogonalEdgeStyle;rounded=0;orthogonalLoop=1;jettySize=auto;html=1;labelBackgroundColor=none;strokeColor=#788AA3;fontColor=default;" edge="1" parent="1" source="IHY_vocE8mnEU9mLplWN-7" target="IHY_vocE8mnEU9mLplWN-10">
          <mxGeometry relative="1" as="geometry" />
        </mxCell>
        <mxCell id="IHY_vocE8mnEU9mLplWN-7" value="L&#39;armadietto è disponibile?" style="rounded=1;arcSize=10;whiteSpace=wrap;html=1;align=center;labelBackgroundColor=none;fillColor=#B2C9AB;strokeColor=#788AA3;fontColor=#46495D;" vertex="1" parent="1">
          <mxGeometry x="92.5" y="900" width="100" height="40" as="geometry" />
        </mxCell>
        <mxCell id="IHY_vocE8mnEU9mLplWN-8" style="edgeStyle=orthogonalEdgeStyle;rounded=0;orthogonalLoop=1;jettySize=auto;html=1;labelBackgroundColor=none;strokeColor=#788AA3;fontColor=default;" edge="1" parent="1" source="IHY_vocE8mnEU9mLplWN-10" target="IHY_vocE8mnEU9mLplWN-12">
          <mxGeometry relative="1" as="geometry" />
        </mxCell>
        <mxCell id="IHY_vocE8mnEU9mLplWN-9" value="&lt;div&gt;SI&lt;/div&gt;" style="edgeLabel;html=1;align=center;verticalAlign=middle;resizable=0;points=[];labelBackgroundColor=none;fontColor=#46495D;" connectable="0" vertex="1" parent="IHY_vocE8mnEU9mLplWN-8">
          <mxGeometry x="-0.0514" y="-2" relative="1" as="geometry">
            <mxPoint as="offset" />
          </mxGeometry>
        </mxCell>
        <mxCell id="IHY_vocE8mnEU9mLplWN-10" value="" style="strokeWidth=2;html=1;shape=mxgraph.flowchart.decision;whiteSpace=wrap;labelBackgroundColor=none;fillColor=#B2C9AB;strokeColor=#788AA3;fontColor=#46495D;" vertex="1" parent="1">
          <mxGeometry x="115" y="980" width="55" height="50" as="geometry" />
        </mxCell>
        <mxCell id="IHY_vocE8mnEU9mLplWN-11" style="edgeStyle=orthogonalEdgeStyle;rounded=0;orthogonalLoop=1;jettySize=auto;html=1;labelBackgroundColor=none;strokeColor=#788AA3;fontColor=default;" edge="1" parent="1" source="IHY_vocE8mnEU9mLplWN-12" target="IHY_vocE8mnEU9mLplWN-20">
          <mxGeometry relative="1" as="geometry" />
        </mxCell>
        <mxCell id="IHY_vocE8mnEU9mLplWN-12" value="Pagamento Cauzione" style="rounded=1;arcSize=10;whiteSpace=wrap;html=1;align=center;labelBackgroundColor=none;fillColor=#B2C9AB;strokeColor=#788AA3;fontColor=#46495D;" vertex="1" parent="1">
          <mxGeometry x="260" y="985" width="100" height="40" as="geometry" />
        </mxCell>
        <mxCell id="IHY_vocE8mnEU9mLplWN-13" value="" style="edgeStyle=orthogonalEdgeStyle;rounded=0;orthogonalLoop=1;jettySize=auto;html=1;exitX=0;exitY=0.5;exitDx=0;exitDy=0;exitPerimeter=0;entryX=0.5;entryY=0;entryDx=0;entryDy=0;labelBackgroundColor=none;strokeColor=#788AA3;fontColor=default;" edge="1" parent="1" source="IHY_vocE8mnEU9mLplWN-10" target="IHY_vocE8mnEU9mLplWN-16">
          <mxGeometry relative="1" as="geometry">
            <mxPoint x="330.5" y="1035" as="sourcePoint" />
            <mxPoint x="147.5" y="1200" as="targetPoint" />
          </mxGeometry>
        </mxCell>
        <mxCell id="IHY_vocE8mnEU9mLplWN-14" value="NO" style="edgeLabel;html=1;align=center;verticalAlign=middle;resizable=0;points=[];labelBackgroundColor=none;fontColor=#46495D;" connectable="0" vertex="1" parent="IHY_vocE8mnEU9mLplWN-13">
          <mxGeometry x="-0.2434" y="5" relative="1" as="geometry">
            <mxPoint as="offset" />
          </mxGeometry>
        </mxCell>
        <mxCell id="IHY_vocE8mnEU9mLplWN-15" style="edgeStyle=orthogonalEdgeStyle;rounded=0;orthogonalLoop=1;jettySize=auto;html=1;labelBackgroundColor=none;strokeColor=#788AA3;fontColor=default;entryX=0;entryY=0.5;entryDx=0;entryDy=0;entryPerimeter=0;" edge="1" parent="1" source="IHY_vocE8mnEU9mLplWN-16" target="IHY_vocE8mnEU9mLplWN-48">
          <mxGeometry relative="1" as="geometry">
            <Array as="points" />
            <mxPoint x="107" y="1400" as="targetPoint" />
          </mxGeometry>
        </mxCell>
        <mxCell id="IHY_vocE8mnEU9mLplWN-16" value="NON e disponibile" style="rounded=1;arcSize=10;whiteSpace=wrap;html=1;align=center;labelBackgroundColor=none;fillColor=#B2C9AB;strokeColor=#788AA3;fontColor=#46495D;" vertex="1" parent="1">
          <mxGeometry x="70" y="1100" width="100" height="40" as="geometry" />
        </mxCell>
        <mxCell id="IHY_vocE8mnEU9mLplWN-17" style="edgeStyle=orthogonalEdgeStyle;rounded=0;orthogonalLoop=1;jettySize=auto;html=1;entryX=0.5;entryY=0;entryDx=0;entryDy=0;labelBackgroundColor=none;strokeColor=#788AA3;fontColor=default;" edge="1" parent="1" source="IHY_vocE8mnEU9mLplWN-19" target="IHY_vocE8mnEU9mLplWN-23">
          <mxGeometry relative="1" as="geometry" />
        </mxCell>
        <mxCell id="IHY_vocE8mnEU9mLplWN-18" value="SI" style="edgeLabel;html=1;align=center;verticalAlign=middle;resizable=0;points=[];labelBackgroundColor=none;fontColor=#46495D;" connectable="0" vertex="1" parent="IHY_vocE8mnEU9mLplWN-17">
          <mxGeometry x="-0.2218" y="-4" relative="1" as="geometry">
            <mxPoint as="offset" />
          </mxGeometry>
        </mxCell>
        <mxCell id="IHY_vocE8mnEU9mLplWN-19" value="" style="strokeWidth=2;html=1;shape=mxgraph.flowchart.decision;whiteSpace=wrap;labelBackgroundColor=none;fillColor=#B2C9AB;strokeColor=#788AA3;fontColor=#46495D;" vertex="1" parent="1">
          <mxGeometry x="282.5" y="1155" width="55" height="50" as="geometry" />
        </mxCell>
        <mxCell id="IHY_vocE8mnEU9mLplWN-20" value="Il pagamento è stato effettuato?" style="rounded=1;arcSize=10;whiteSpace=wrap;html=1;align=center;labelBackgroundColor=none;fillColor=#B2C9AB;strokeColor=#788AA3;fontColor=#46495D;" vertex="1" parent="1">
          <mxGeometry x="260" y="1070" width="100" height="40" as="geometry" />
        </mxCell>
        <mxCell id="IHY_vocE8mnEU9mLplWN-21" style="edgeStyle=orthogonalEdgeStyle;rounded=0;orthogonalLoop=1;jettySize=auto;html=1;entryX=0.5;entryY=0;entryDx=0;entryDy=0;entryPerimeter=0;labelBackgroundColor=none;strokeColor=#788AA3;fontColor=default;" edge="1" parent="1" source="IHY_vocE8mnEU9mLplWN-20" target="IHY_vocE8mnEU9mLplWN-19">
          <mxGeometry relative="1" as="geometry" />
        </mxCell>
        <mxCell id="IHY_vocE8mnEU9mLplWN-22" style="edgeStyle=orthogonalEdgeStyle;rounded=0;orthogonalLoop=1;jettySize=auto;html=1;entryX=0.5;entryY=0;entryDx=0;entryDy=0;labelBackgroundColor=none;strokeColor=#788AA3;fontColor=default;" edge="1" parent="1" source="IHY_vocE8mnEU9mLplWN-23" target="IHY_vocE8mnEU9mLplWN-24">
          <mxGeometry relative="1" as="geometry" />
        </mxCell>
        <mxCell id="IHY_vocE8mnEU9mLplWN-23" value="Assegnazione Armadietto" style="rounded=1;whiteSpace=wrap;html=1;labelBackgroundColor=none;fillColor=#B2C9AB;strokeColor=#788AA3;fontColor=#46495D;" vertex="1" parent="1">
          <mxGeometry x="350" y="1220" width="120" height="40" as="geometry" />
        </mxCell>
        <mxCell id="IHY_vocE8mnEU9mLplWN-24" value="Registrazione Transazione" style="rounded=1;whiteSpace=wrap;html=1;labelBackgroundColor=none;fillColor=#B2C9AB;strokeColor=#788AA3;fontColor=#46495D;" vertex="1" parent="1">
          <mxGeometry x="350" y="1290" width="120" height="40" as="geometry" />
        </mxCell>
        <mxCell id="IHY_vocE8mnEU9mLplWN-25" style="edgeStyle=orthogonalEdgeStyle;rounded=0;orthogonalLoop=1;jettySize=auto;html=1;entryX=0.5;entryY=0;entryDx=0;entryDy=0;labelBackgroundColor=none;strokeColor=#788AA3;fontColor=default;" edge="1" parent="1" source="IHY_vocE8mnEU9mLplWN-26" target="IHY_vocE8mnEU9mLplWN-34">
          <mxGeometry relative="1" as="geometry" />
        </mxCell>
        <mxCell id="IHY_vocE8mnEU9mLplWN-26" value="Restituzione Armadietto" style="rounded=1;whiteSpace=wrap;html=1;labelBackgroundColor=none;fillColor=#B2C9AB;strokeColor=#788AA3;fontColor=#46495D;" vertex="1" parent="1">
          <mxGeometry x="550" y="795" width="120" height="40" as="geometry" />
        </mxCell>
        <mxCell id="IHY_vocE8mnEU9mLplWN-27" style="edgeStyle=orthogonalEdgeStyle;rounded=0;orthogonalLoop=1;jettySize=auto;html=1;entryX=0.5;entryY=0;entryDx=0;entryDy=0;exitX=1;exitY=0.5;exitDx=0;exitDy=0;exitPerimeter=0;labelBackgroundColor=none;strokeColor=#788AA3;fontColor=default;" edge="1" parent="1" source="IHY_vocE8mnEU9mLplWN-31" target="IHY_vocE8mnEU9mLplWN-26">
          <mxGeometry relative="1" as="geometry" />
        </mxCell>
        <mxCell id="IHY_vocE8mnEU9mLplWN-28" value="NO" style="edgeLabel;html=1;align=center;verticalAlign=middle;resizable=0;points=[];labelBackgroundColor=none;fontColor=#46495D;" connectable="0" vertex="1" parent="IHY_vocE8mnEU9mLplWN-27">
          <mxGeometry x="-0.2216" y="3" relative="1" as="geometry">
            <mxPoint x="1" as="offset" />
          </mxGeometry>
        </mxCell>
        <mxCell id="IHY_vocE8mnEU9mLplWN-29" style="edgeStyle=orthogonalEdgeStyle;rounded=0;orthogonalLoop=1;jettySize=auto;html=1;entryX=0.42;entryY=-0.107;entryDx=0;entryDy=0;entryPerimeter=0;labelBackgroundColor=none;strokeColor=#788AA3;fontColor=default;" edge="1" parent="1" source="IHY_vocE8mnEU9mLplWN-31" target="IHY_vocE8mnEU9mLplWN-5">
          <mxGeometry relative="1" as="geometry">
            <mxPoint x="129.9999999999999" y="765" as="targetPoint" />
            <Array as="points">
              <mxPoint x="135" y="765" />
              <mxPoint x="135" y="815" />
            </Array>
          </mxGeometry>
        </mxCell>
        <mxCell id="IHY_vocE8mnEU9mLplWN-30" value="SI" style="edgeLabel;html=1;align=center;verticalAlign=middle;resizable=0;points=[];labelBackgroundColor=none;fontColor=#46495D;" connectable="0" vertex="1" parent="IHY_vocE8mnEU9mLplWN-29">
          <mxGeometry x="-0.6027" y="3" relative="1" as="geometry">
            <mxPoint as="offset" />
          </mxGeometry>
        </mxCell>
        <mxCell id="IHY_vocE8mnEU9mLplWN-31" value="" style="strokeWidth=2;html=1;shape=mxgraph.flowchart.decision;whiteSpace=wrap;labelBackgroundColor=none;fillColor=#B2C9AB;strokeColor=#788AA3;fontColor=#46495D;" vertex="1" parent="1">
          <mxGeometry x="170" y="740" width="52.5" height="50" as="geometry" />
        </mxCell>
        <mxCell id="IHY_vocE8mnEU9mLplWN-32" style="edgeStyle=orthogonalEdgeStyle;rounded=0;orthogonalLoop=1;jettySize=auto;html=1;strokeColor=#788AA3;fontColor=#46495D;fillColor=#B2C9AB;" edge="1" parent="1" source="IHY_vocE8mnEU9mLplWN-33" target="IHY_vocE8mnEU9mLplWN-52">
          <mxGeometry relative="1" as="geometry" />
        </mxCell>
        <mxCell id="IHY_vocE8mnEU9mLplWN-33" value="Richiede un armadietto o restituisce" style="rounded=1;whiteSpace=wrap;html=1;labelBackgroundColor=none;fillColor=#B2C9AB;strokeColor=#788AA3;fontColor=#46495D;" vertex="1" parent="1">
          <mxGeometry x="135" y="580" width="120" height="60" as="geometry" />
        </mxCell>
        <mxCell id="IHY_vocE8mnEU9mLplWN-34" value="Chiave Restituita a tempo?" style="rounded=1;whiteSpace=wrap;html=1;labelBackgroundColor=none;fillColor=#B2C9AB;strokeColor=#788AA3;fontColor=#46495D;" vertex="1" parent="1">
          <mxGeometry x="550" y="875" width="120" height="30" as="geometry" />
        </mxCell>
        <mxCell id="IHY_vocE8mnEU9mLplWN-35" style="edgeStyle=orthogonalEdgeStyle;rounded=0;orthogonalLoop=1;jettySize=auto;html=1;entryX=0.5;entryY=0;entryDx=0;entryDy=0;labelBackgroundColor=none;strokeColor=#788AA3;fontColor=default;" edge="1" parent="1" source="IHY_vocE8mnEU9mLplWN-39" target="IHY_vocE8mnEU9mLplWN-42">
          <mxGeometry relative="1" as="geometry" />
        </mxCell>
        <mxCell id="IHY_vocE8mnEU9mLplWN-36" value="NO" style="edgeLabel;html=1;align=center;verticalAlign=middle;resizable=0;points=[];labelBackgroundColor=none;fontColor=#46495D;" connectable="0" vertex="1" parent="IHY_vocE8mnEU9mLplWN-35">
          <mxGeometry x="-0.2786" y="5" relative="1" as="geometry">
            <mxPoint as="offset" />
          </mxGeometry>
        </mxCell>
        <mxCell id="IHY_vocE8mnEU9mLplWN-37" style="edgeStyle=orthogonalEdgeStyle;rounded=0;orthogonalLoop=1;jettySize=auto;html=1;exitX=1;exitY=0.5;exitDx=0;exitDy=0;exitPerimeter=0;entryX=1;entryY=0.5;entryDx=0;entryDy=0;entryPerimeter=0;labelBackgroundColor=none;strokeColor=#788AA3;fontColor=default;" edge="1" parent="1" source="IHY_vocE8mnEU9mLplWN-39" target="IHY_vocE8mnEU9mLplWN-44">
          <mxGeometry relative="1" as="geometry">
            <mxPoint x="610" y="1080" as="targetPoint" />
            <Array as="points">
              <mxPoint x="660" y="960" />
              <mxPoint x="660" y="1120" />
            </Array>
          </mxGeometry>
        </mxCell>
        <mxCell id="IHY_vocE8mnEU9mLplWN-38" value="SI" style="edgeLabel;html=1;align=center;verticalAlign=middle;resizable=0;points=[];labelBackgroundColor=none;fontColor=#46495D;" connectable="0" vertex="1" parent="IHY_vocE8mnEU9mLplWN-37">
          <mxGeometry x="-0.2035" y="1" relative="1" as="geometry">
            <mxPoint as="offset" />
          </mxGeometry>
        </mxCell>
        <mxCell id="IHY_vocE8mnEU9mLplWN-39" value="" style="strokeWidth=2;html=1;shape=mxgraph.flowchart.decision;whiteSpace=wrap;labelBackgroundColor=none;fillColor=#B2C9AB;strokeColor=#788AA3;fontColor=#46495D;" vertex="1" parent="1">
          <mxGeometry x="582.5" y="935" width="55" height="50" as="geometry" />
        </mxCell>
        <mxCell id="IHY_vocE8mnEU9mLplWN-40" style="edgeStyle=orthogonalEdgeStyle;rounded=0;orthogonalLoop=1;jettySize=auto;html=1;entryX=0.5;entryY=0;entryDx=0;entryDy=0;entryPerimeter=0;labelBackgroundColor=none;strokeColor=#788AA3;fontColor=default;" edge="1" parent="1" source="IHY_vocE8mnEU9mLplWN-34" target="IHY_vocE8mnEU9mLplWN-39">
          <mxGeometry relative="1" as="geometry" />
        </mxCell>
        <mxCell id="IHY_vocE8mnEU9mLplWN-41" value="Processo Rimborso" style="rounded=1;whiteSpace=wrap;html=1;labelBackgroundColor=none;fillColor=#B2C9AB;strokeColor=#788AA3;fontColor=#46495D;" vertex="1" parent="1">
          <mxGeometry x="550" y="1155" width="120" height="60" as="geometry" />
        </mxCell>
        <mxCell id="IHY_vocE8mnEU9mLplWN-42" value="Applicazione Multa" style="rounded=1;whiteSpace=wrap;html=1;labelBackgroundColor=none;fillColor=#B2C9AB;strokeColor=#788AA3;fontColor=#46495D;" vertex="1" parent="1">
          <mxGeometry x="450" y="1010" width="120" height="40" as="geometry" />
        </mxCell>
        <mxCell id="IHY_vocE8mnEU9mLplWN-43" style="edgeStyle=orthogonalEdgeStyle;rounded=0;orthogonalLoop=1;jettySize=auto;html=1;labelBackgroundColor=none;strokeColor=#788AA3;fontColor=default;" edge="1" parent="1" source="IHY_vocE8mnEU9mLplWN-44" target="IHY_vocE8mnEU9mLplWN-41">
          <mxGeometry relative="1" as="geometry" />
        </mxCell>
        <mxCell id="IHY_vocE8mnEU9mLplWN-44" value="" style="strokeWidth=2;html=1;shape=mxgraph.flowchart.decision;whiteSpace=wrap;labelBackgroundColor=none;fillColor=#B2C9AB;strokeColor=#788AA3;fontColor=#46495D;" vertex="1" parent="1">
          <mxGeometry x="582.5" y="1095" width="55" height="50" as="geometry" />
        </mxCell>
        <mxCell id="IHY_vocE8mnEU9mLplWN-45" style="edgeStyle=orthogonalEdgeStyle;rounded=0;orthogonalLoop=1;jettySize=auto;html=1;entryX=0;entryY=0.5;entryDx=0;entryDy=0;entryPerimeter=0;labelBackgroundColor=none;strokeColor=#788AA3;fontColor=default;" edge="1" parent="1" source="IHY_vocE8mnEU9mLplWN-42" target="IHY_vocE8mnEU9mLplWN-44">
          <mxGeometry relative="1" as="geometry">
            <mxPoint x="610" y="1090" as="targetPoint" />
            <Array as="points">
              <mxPoint x="520" y="1120" />
            </Array>
          </mxGeometry>
        </mxCell>
        <mxCell id="IHY_vocE8mnEU9mLplWN-46" style="edgeStyle=orthogonalEdgeStyle;rounded=0;orthogonalLoop=1;jettySize=auto;html=1;entryX=0.5;entryY=1;entryDx=0;entryDy=0;entryPerimeter=0;labelBackgroundColor=none;strokeColor=#788AA3;fontColor=default;" edge="1" parent="1" source="IHY_vocE8mnEU9mLplWN-24" target="IHY_vocE8mnEU9mLplWN-48">
          <mxGeometry relative="1" as="geometry">
            <Array as="points">
              <mxPoint x="80" y="1310" />
              <mxPoint x="80" y="1468" />
            </Array>
            <mxPoint x="80" y="1425" as="targetPoint" />
          </mxGeometry>
        </mxCell>
        <mxCell id="IHY_vocE8mnEU9mLplWN-47" style="edgeStyle=orthogonalEdgeStyle;rounded=0;orthogonalLoop=1;jettySize=auto;html=1;strokeColor=#788AA3;fontColor=#46495D;fillColor=#B2C9AB;" edge="1" parent="1" source="IHY_vocE8mnEU9mLplWN-48" target="IHY_vocE8mnEU9mLplWN-1">
          <mxGeometry relative="1" as="geometry">
            <Array as="points">
              <mxPoint x="120" y="1530" />
              <mxPoint x="120" y="1530" />
            </Array>
          </mxGeometry>
        </mxCell>
        <mxCell id="IHY_vocE8mnEU9mLplWN-48" value="" style="strokeWidth=2;html=1;shape=mxgraph.flowchart.decision;whiteSpace=wrap;labelBackgroundColor=none;fillColor=#B2C9AB;strokeColor=#788AA3;fontColor=#46495D;direction=south;" vertex="1" parent="1">
          <mxGeometry x="95" y="1440" width="50" height="55" as="geometry" />
        </mxCell>
        <mxCell id="IHY_vocE8mnEU9mLplWN-49" style="edgeStyle=orthogonalEdgeStyle;rounded=0;orthogonalLoop=1;jettySize=auto;html=1;entryX=0.5;entryY=0;entryDx=0;entryDy=0;entryPerimeter=0;strokeColor=#788AA3;fontColor=#46495D;fillColor=#B2C9AB;" edge="1" parent="1" source="IHY_vocE8mnEU9mLplWN-41" target="IHY_vocE8mnEU9mLplWN-48">
          <mxGeometry relative="1" as="geometry">
            <Array as="points">
              <mxPoint x="610" y="1468" />
            </Array>
          </mxGeometry>
        </mxCell>
        <mxCell id="IHY_vocE8mnEU9mLplWN-50" style="edgeStyle=orthogonalEdgeStyle;rounded=0;orthogonalLoop=1;jettySize=auto;html=1;entryX=0.327;entryY=0.22;entryDx=0;entryDy=0;entryPerimeter=0;strokeColor=#788AA3;fontColor=#46495D;fillColor=#B2C9AB;" edge="1" parent="1" source="IHY_vocE8mnEU9mLplWN-19" target="IHY_vocE8mnEU9mLplWN-48">
          <mxGeometry relative="1" as="geometry" />
        </mxCell>
        <mxCell id="IHY_vocE8mnEU9mLplWN-51" value="NO" style="edgeLabel;html=1;align=center;verticalAlign=middle;resizable=0;points=[];strokeColor=#788AA3;fontColor=#46495D;fillColor=#B2C9AB;" vertex="1" connectable="0" parent="IHY_vocE8mnEU9mLplWN-50">
          <mxGeometry x="-0.7304" y="6" relative="1" as="geometry">
            <mxPoint as="offset" />
          </mxGeometry>
        </mxCell>
        <mxCell id="IHY_vocE8mnEU9mLplWN-52" value="richiede armadieto?" style="rounded=1;whiteSpace=wrap;html=1;labelBackgroundColor=none;fillColor=#B2C9AB;strokeColor=#788AA3;fontColor=#46495D;" vertex="1" parent="1">
          <mxGeometry x="135" y="660" width="120" height="60" as="geometry" />
        </mxCell>
        <mxCell id="IHY_vocE8mnEU9mLplWN-53" style="edgeStyle=orthogonalEdgeStyle;rounded=0;orthogonalLoop=1;jettySize=auto;html=1;entryX=0.484;entryY=0.124;entryDx=0;entryDy=0;entryPerimeter=0;strokeColor=#788AA3;fontColor=#46495D;fillColor=#B2C9AB;" edge="1" parent="1" source="IHY_vocE8mnEU9mLplWN-52" target="IHY_vocE8mnEU9mLplWN-31">
          <mxGeometry relative="1" as="geometry" />
        </mxCell>
        <mxCell id="IHY_vocE8mnEU9mLplWN-54" value="Actor" style="shape=umlActor;verticalLabelPosition=bottom;verticalAlign=top;html=1;outlineConnect=0;" vertex="1" parent="1">
          <mxGeometry x="710" y="1250" width="50" height="100" as="geometry" />
        </mxCell>
      </root>
    </mxGraphModel>
  </diagram>
</mxfile>
